<svg xmlns="http://www.w3.org/2000/svg" width="1400" height="860" viewBox="0 0 1400 860" role="img" aria-labelledby="title desc">
  <title id="title">TMA asynchronous load synchronization</title>
  <desc id="desc">One thread issues two TMA loads and registers 4096 expected bytes. The TMA engine completes the transfers and updates the mbarrier through complete-tx. The consumer waits for the phase before starting MMA.</desc>
  <defs>
    <marker id="arrow-blue" markerWidth="10" markerHeight="8" refX="9" refY="4" orient="auto">
      <path d="M0,0 L10,4 L0,8 Z" fill="#2563eb"/>
    </marker>
    <marker id="arrow-orange" markerWidth="10" markerHeight="8" refX="9" refY="4" orient="auto">
      <path d="M0,0 L10,4 L0,8 Z" fill="#d97706"/>
    </marker>
    <marker id="arrow-green" markerWidth="10" markerHeight="8" refX="9" refY="4" orient="auto">
      <path d="M0,0 L10,4 L0,8 Z" fill="#059669"/>
    </marker>
    <style>
      text { font-family: -apple-system, BlinkMacSystemFont, "Segoe UI", sans-serif; fill: #1f2937; }
      .title { font-size: 34px; font-weight: 700; }
      .lane-title { font-size: 23px; font-weight: 700; }
      .step { font-size: 19px; font-weight: 700; }
      .label { font-size: 18px; font-weight: 650; }
      .detail { font-size: 16px; }
      .mono { font-family: "SFMono-Regular", Consolas, monospace; }
      .life { stroke: #cbd5e1; stroke-width: 2; stroke-dasharray: 5 7; }
    </style>
  </defs>

  <rect width="1400" height="860" fill="#ffffff"/>
  <text x="700" y="52" text-anchor="middle" class="title">TMA Asynchronous Load Synchronization</text>

  <g>
    <rect x="150" y="88" width="230" height="82" rx="8" fill="#f8fafc" stroke="#111827" stroke-width="3"/>
    <text x="265" y="123" text-anchor="middle" class="lane-title">Issuing</text>
    <text x="265" y="151" text-anchor="middle" class="lane-title">Thread</text>

    <rect x="500" y="88" width="230" height="82" rx="8" fill="#bfdbfe" stroke="#111827" stroke-width="3"/>
    <text x="615" y="137" text-anchor="middle" class="lane-title">TMA Engine</text>

    <rect x="850" y="88" width="230" height="82" rx="8" fill="#fde68a" stroke="#111827" stroke-width="3"/>
    <text x="965" y="137" text-anchor="middle" class="lane-title">mbarrier</text>

    <rect x="1170" y="88" width="180" height="82" rx="8" fill="#bbf7d0" stroke="#111827" stroke-width="3"/>
    <text x="1260" y="123" text-anchor="middle" class="lane-title">Consumer</text>
    <text x="1260" y="151" text-anchor="middle" class="lane-title">MMA</text>
  </g>

  <line x1="265" y1="180" x2="265" y2="815" class="life"/>
  <line x1="615" y1="180" x2="615" y2="815" class="life"/>
  <line x1="965" y1="180" x2="965" y2="815" class="life"/>
  <line x1="1260" y1="180" x2="1260" y2="815" class="life"/>

  <g>
    <circle cx="64" cy="245" r="24" fill="#4a90d9" stroke="#111827" stroke-width="2"/>
    <text x="64" y="252" text-anchor="middle" fill="#ffffff" class="step">1</text>
    <text x="102" y="251" class="step">Issue TMA loads</text>
    <line x1="265" y1="225" x2="615" y2="225" stroke="#2563eb" stroke-width="4" marker-end="url(#arrow-blue)"/>
    <text x="440" y="213" text-anchor="middle" class="label mono" fill="#2563eb">copy_async(A)</text>
    <line x1="265" y1="275" x2="615" y2="275" stroke="#2563eb" stroke-width="4" marker-end="url(#arrow-blue)"/>
    <text x="440" y="263" text-anchor="middle" class="label mono" fill="#2563eb">copy_async(B)</text>
  </g>

  <g>
    <circle cx="64" cy="365" r="24" fill="#4a90d9" stroke="#111827" stroke-width="2"/>
    <text x="64" y="372" text-anchor="middle" fill="#ffffff" class="step">2</text>
    <text x="102" y="357" class="step">Register</text>
    <text x="102" y="381" class="step">byte count</text>
    <line x1="265" y1="365" x2="965" y2="365" stroke="#d97706" stroke-width="4" marker-end="url(#arrow-orange)"/>
    <text x="615" y="350" text-anchor="middle" class="label mono" fill="#d97706">arrive.expect_tx(4096)</text>
    <text x="965" y="398" text-anchor="middle" class="detail">arrival = 0, pending bytes = 4096</text>
  </g>

  <g>
    <circle cx="64" cy="505" r="24" fill="#4a90d9" stroke="#111827" stroke-width="2"/>
    <text x="64" y="512" text-anchor="middle" fill="#ffffff" class="step">3</text>
    <text x="102" y="511" class="step">Transfer data</text>
    <rect x="535" y="435" width="160" height="106" rx="8" fill="#dbeafe" stroke="#2563eb" stroke-width="3"/>
    <text x="615" y="476" text-anchor="middle" class="label">GMEM to SMEM</text>
    <text x="615" y="509" text-anchor="middle" class="detail">4096 bytes total</text>
    <line x1="615" y1="565" x2="965" y2="565" stroke="#d97706" stroke-width="4" marker-end="url(#arrow-orange)"/>
    <text x="790" y="550" text-anchor="middle" class="label mono" fill="#d97706">complete_tx(4096)</text>
    <text x="965" y="598" text-anchor="middle" class="detail">arrival = 0, pending bytes = 0</text>
  </g>

  <g>
    <circle cx="64" cy="660" r="24" fill="#4a90d9" stroke="#111827" stroke-width="2"/>
    <text x="64" y="667" text-anchor="middle" fill="#ffffff" class="step">4</text>
    <text x="102" y="666" class="step">Wait for phase</text>
    <line x1="1260" y1="635" x2="965" y2="635" stroke="#d97706" stroke-width="4" marker-end="url(#arrow-orange)"/>
    <text x="1112" y="620" text-anchor="middle" class="label mono" fill="#d97706">try_wait(phase)</text>
    <line x1="965" y1="690" x2="1260" y2="690" stroke="#d97706" stroke-width="4" marker-end="url(#arrow-orange)"/>
    <text x="1112" y="678" text-anchor="middle" class="label" fill="#d97706">phase complete</text>
  </g>

  <g>
    <circle cx="64" cy="780" r="24" fill="#4a90d9" stroke="#111827" stroke-width="2"/>
    <text x="64" y="787" text-anchor="middle" fill="#ffffff" class="step">5</text>
    <text x="102" y="786" class="step">Start MMA</text>
    <line x1="265" y1="780" x2="1260" y2="780" stroke="#059669" stroke-width="4" marker-end="url(#arrow-green)"/>
    <text x="762" y="765" text-anchor="middle" class="label mono" fill="#059669">gemm_async + commit</text>
  </g>
</svg>
